<svg fill="none" height="512" viewBox="0 0 24 24" width="512" xmlns="http://www.w3.org/2000/svg"><g fill="rgb(0,0,0)"><path d="m12 .75c.4142 0 .75.33579.75.75v4.28582c3.9283.37723 7 3.68699 7 7.71418v3c0 .4142-.3358.75-.75.75s-.75-.3358-.75-.75v-.25h-.25c-.4142 0-.75-.3358-.75-.75s.3358-.75.75-.75h.25v-1.25c0-3.4518-2.7982-6.25-6.25-6.25-3.45178 0-6.25 2.7982-6.25 6.25v1.25h.25c.41421 0 .75.3358.75.75s-.33579.75-.75.75h-.25v.25c0 .4142-.33579.75-.75.75s-.75-.3358-.75-.75v-3c0-4.02719 3.0717-7.33695 7-7.71418v-4.28582c0-.41421.3358-.75.75-.75z"/><path d="m10 13.75h-2.69112c.35958-2.267 2.32297-4 4.69112-4 2.3682 0 4.3315 1.733 4.6911 4h-2.6911c-.4142 0-.75.3358-.75.75s.3358.75.75.75h2.75v2.5h-2.75c-.4142 0-.75.3358-.75.75s.3358.75.75.75h2.6911c-.3596 2.267-2.3229 4-4.6911 4-2.36815 0-4.33154-1.733-4.69112-4h2.69112c.4142 0 .75-.3358.75-.75s-.3358-.75-.75-.75h-2.75v-2.5h2.75c.4142 0 .75-.3358.75-.75s-.3358-.75-.75-.75z"/></g></svg>